<svg width="1728" height="1072" viewBox="0 0 1728 1072" fill="none" xmlns="http://www.w3.org/2000/svg">
<g opacity="0.1">
<path d="M130.894 -61.0937C783.632 -63.017 1436.37 -65.3191 2089.11 -68C2356.96 125.024 2539.58 404.069 2873.09 484.496C3156.68 553.033 3396.48 613.178 3657.07 755.498C1794.91 753.4 -67.1417 753.4 -1929.08 755.498C-1748.73 680.754 -1570.65 603.649 -1375.62 580.658C-1216.69 561.6 -1057.93 581.882 -898.828 572.44C-460.766 545.952 -213.017 160.079 130.894 -61.0937Z" stroke="#4A3AFF" stroke-width="2.63723" stroke-miterlimit="10"/>
<path d="M-1474.01 594.651C-675.166 671.843 110.042 882.526 916.406 875.357C1722.77 868.189 2506.4 649.726 3306.82 583.811" stroke="#4A3AFF" stroke-width="2.63723" stroke-miterlimit="10"/>
<path d="M-1132.66 570.96C-459.529 758.301 242.98 1098.02 956.678 1061.56C1676.67 1024.85 2353.92 691.337 3046.02 520.431" stroke="#4A3AFF" stroke-width="2.63723" stroke-miterlimit="10"/>
<path d="M-866.987 570.962C-276.988 787.502 343.258 1091.46 988.419 1046.18C1635.42 1000.63 2236.43 680.587 2843.56 479.521" stroke="#4A3AFF" stroke-width="2.63723" stroke-miterlimit="10"/>
<path d="M-654.995 525.51C-123.13 695.192 445.626 908.41 1013.68 859.542C1587.95 810.15 2134.93 587.316 2682.27 422.441" stroke="#4A3AFF" stroke-width="2.63723" stroke-miterlimit="10"/>
<path d="M-481.382 431.608C13.4167 550.587 521.94 673.413 1034.66 636.784C1549.74 599.98 2050.48 455.124 2550.7 336.233" stroke="#4A3AFF" stroke-width="2.63723" stroke-miterlimit="10"/>
<path d="M-336.798 321.021C123.818 396.552 584.61 455.648 1052.22 434.143C1519.83 412.637 1981.15 321.458 2441.24 242.255" stroke="#4A3AFF" stroke-width="2.63723" stroke-miterlimit="10"/>
<path d="M-214.41 213.156C651.05 300.576 1487.22 253.282 2348.84 153.71" stroke="#4A3AFF" stroke-width="2.63723" stroke-miterlimit="10"/>
<path d="M-109.573 118.31C685.251 161.408 1476.4 133.346 2269.83 77.0473" stroke="#4A3AFF" stroke-width="2.63723" stroke-miterlimit="10"/>
<path d="M-19.0106 40.5754C720.826 57.2727 1461.71 42.9358 2201.46 14.3494" stroke="#4A3AFF" stroke-width="2.63723" stroke-miterlimit="10"/>
<path d="M1552.3 -65.9851C1613.49 109.729 1658.69 287.018 1702.4 468.152C1719.1 537.214 1760.45 832.869 1832.39 867.05C1944.73 920.464 2007.23 634.25 2112.14 755.327" stroke="#4A3AFF" stroke-width="2.63723" stroke-miterlimit="10"/>
<path d="M1373.84 -65.369C1401.99 149.51 1421.57 364.738 1440.89 580.579C1452.6 711.709 1450.07 865.568 1498.85 990.055C1531.28 940.575 1539.15 746.502 1601.22 755.594" stroke="#4A3AFF" stroke-width="2.63723" stroke-miterlimit="10"/>
<path d="M1195.58 -64.8416C1173.98 307.394 1192.52 695.277 1138.4 1064.28C1119.26 986.124 1145.57 810.759 1091.63 755.51" stroke="#4A3AFF" stroke-width="2.63723" stroke-miterlimit="10"/>
<path d="M1017.63 -64.4996C954.159 190.505 923.649 444.461 880.201 703.574C873.295 745.012 851.702 1046.17 800.736 1066.19C687.527 1110.78 711.655 748.858 583.847 755.502" stroke="#4A3AFF" stroke-width="2.63723" stroke-miterlimit="10"/>
<path d="M839.893 -64.3306C740.146 157.454 683.935 386.058 618.282 619.033C604.208 668.862 544.412 966.004 458.828 1010.15C297.188 1093.37 257.762 661.956 77.7635 755.583" stroke="#4A3AFF" stroke-width="2.63723" stroke-miterlimit="10"/>
<path d="M662.317 -63.2696C515.888 149.336 439.221 385.633 332.131 618.608C303.108 681.725 210.879 914.875 117.864 941.625C-86.5242 1000.37 -203.493 604.096 -426.676 755.158" stroke="#4A3AFF" stroke-width="2.63723" stroke-miterlimit="10"/>
<path d="M484.94 -62.4867C318.841 112.354 217.084 322.687 84.9921 522.617C12.2585 632.679 -81.7182 793.619 -222.202 821.768C-345.115 845.984 -456.751 761.099 -569.61 726.131C-704.937 684.169 -801.973 695.009 -929.344 754.804" stroke="#4A3AFF" stroke-width="2.63723" stroke-miterlimit="10"/>
<path d="M307.885 -61.6152C42.2146 154.662 -185.078 658.64 -560.985 696.755C-702.78 711.092 -844.663 655.842 -985.672 647.887C-1148.1 638.708 -1284.47 684.429 -1430.03 754.802" stroke="#4A3AFF" stroke-width="2.63723" stroke-miterlimit="10"/>
</g>
</svg>
