<svg width="33" height="33" viewBox="0 0 33 33" fill="none" xmlns="http://www.w3.org/2000/svg">
<path d="M16.5 3.35156C13.8995 3.35156 11.3574 4.1227 9.19513 5.56747C7.03288 7.01224 5.34761 9.06575 4.35243 11.4683C3.35726 13.8709 3.09688 16.5146 3.60421 19.0651C4.11155 21.6157 5.36381 23.9585 7.20266 25.7973C9.0415 27.6362 11.3843 28.8885 13.9349 29.3958C16.4854 29.9031 19.1291 29.6427 21.5317 28.6476C23.9343 27.6524 25.9878 25.9671 27.4325 23.8049C28.8773 21.6426 29.6484 19.1005 29.6484 16.5C29.6444 13.0141 28.2578 9.6721 25.7928 7.20717C23.3279 4.74225 19.9859 3.35566 16.5 3.35156ZM17.2734 28.0758V19.3359H20.625C20.8301 19.3359 21.0269 19.2545 21.1719 19.1094C21.317 18.9644 21.3984 18.7676 21.3984 18.5625C21.3984 18.3574 21.317 18.1606 21.1719 18.0156C21.0269 17.8705 20.8301 17.7891 20.625 17.7891H17.2734V14.4375C17.2734 13.8221 17.5179 13.2319 17.953 12.7968C18.3882 12.3616 18.9784 12.1172 19.5938 12.1172H21.6563C21.8614 12.1172 22.0581 12.0357 22.2032 11.8907C22.3482 11.7456 22.4297 11.5489 22.4297 11.3438C22.4297 11.1386 22.3482 10.9419 22.2032 10.7968C22.0581 10.6518 21.8614 10.5703 21.6563 10.5703H19.5938C18.5681 10.5703 17.5845 10.9777 16.8592 11.703C16.134 12.4282 15.7266 13.4119 15.7266 14.4375V17.7891H12.375C12.1699 17.7891 11.9732 17.8705 11.8281 18.0156C11.6831 18.1606 11.6016 18.3574 11.6016 18.5625C11.6016 18.7676 11.6831 18.9644 11.8281 19.1094C11.9732 19.2545 12.1699 19.3359 12.375 19.3359H15.7266V28.0758C12.7233 27.8751 9.91564 26.5151 7.89642 24.283C5.87719 22.0509 4.80451 19.1213 4.9049 16.1131C5.00528 13.1048 6.27088 10.2534 8.43442 8.16081C10.598 6.06826 13.4901 4.89847 16.5 4.89847C19.5099 4.89847 22.402 6.06826 24.5656 8.16081C26.7291 10.2534 27.9947 13.1048 28.0951 16.1131C28.1955 19.1213 27.1228 22.0509 25.1036 24.283C23.0844 26.5151 20.2767 27.8751 17.2734 28.0758Z" fill="white"/>
</svg>
