<svg width="33" height="33" viewBox="0 0 33 33" fill="none" xmlns="http://www.w3.org/2000/svg">
<path d="M16.5 10.5703C15.3272 10.5703 14.1808 10.9181 13.2056 11.5696C12.2305 12.2212 11.4705 13.1473 11.0217 14.2308C10.5729 15.3143 10.4555 16.5066 10.6843 17.6568C10.913 18.8071 11.4778 19.8636 12.3071 20.6929C13.1364 21.5222 14.1929 22.087 15.3432 22.3158C16.4934 22.5445 17.6857 22.4271 18.7692 21.9783C19.8527 21.5295 20.7788 20.7695 21.4304 19.7944C22.0819 18.8192 22.4297 17.6728 22.4297 16.5C22.4276 14.928 21.8023 13.4209 20.6907 12.3093C19.5791 11.1977 18.072 10.5724 16.5 10.5703ZM16.5 20.8828C15.6332 20.8828 14.7858 20.6258 14.065 20.1442C13.3443 19.6626 12.7825 18.9781 12.4508 18.1772C12.1191 17.3764 12.0323 16.4951 12.2014 15.645C12.3705 14.7948 12.7879 14.0138 13.4009 13.4009C14.0138 12.7879 14.7948 12.3705 15.645 12.2014C16.4951 12.0323 17.3764 12.1191 18.1772 12.4508C18.9781 12.7825 19.6626 13.3443 20.1442 14.065C20.6258 14.7858 20.8828 15.6332 20.8828 16.5C20.8828 17.6624 20.4211 18.7772 19.5991 19.5991C18.7772 20.4211 17.6624 20.8828 16.5 20.8828ZM22.6875 3.35156H10.3125C8.46697 3.35361 6.69762 4.08765 5.39264 5.39264C4.08765 6.69762 3.35361 8.46697 3.35156 10.3125V22.6875C3.35361 24.533 4.08765 26.3024 5.39264 27.6074C6.69762 28.9124 8.46697 29.6464 10.3125 29.6484H22.6875C24.533 29.6464 26.3024 28.9124 27.6074 27.6074C28.9124 26.3024 29.6464 24.533 29.6484 22.6875V10.3125C29.6464 8.46697 28.9124 6.69762 27.6074 5.39264C26.3024 4.08765 24.533 3.35361 22.6875 3.35156ZM28.1016 22.6875C28.1016 24.1234 27.5312 25.5005 26.5158 26.5158C25.5005 27.5312 24.1234 28.1016 22.6875 28.1016H10.3125C8.8766 28.1016 7.49951 27.5312 6.48418 26.5158C5.46885 25.5005 4.89844 24.1234 4.89844 22.6875V10.3125C4.89844 8.8766 5.46885 7.49951 6.48418 6.48418C7.49951 5.46885 8.8766 4.89844 10.3125 4.89844H22.6875C24.1234 4.89844 25.5005 5.46885 26.5158 6.48418C27.5312 7.49951 28.1016 8.8766 28.1016 10.3125V22.6875ZM24.4922 9.79688C24.4922 10.0518 24.4166 10.3011 24.2749 10.513C24.1333 10.725 23.932 10.8902 23.6964 10.9878C23.4609 11.0854 23.2017 11.1109 22.9516 11.0612C22.7016 11.0114 22.4719 10.8887 22.2916 10.7084C22.1113 10.5281 21.9886 10.2984 21.9388 10.0484C21.8891 9.79831 21.9146 9.53912 22.0122 9.30357C22.1098 9.06803 22.275 8.8667 22.487 8.72506C22.6989 8.58341 22.9482 8.50781 23.2031 8.50781C23.545 8.50781 23.8729 8.64362 24.1146 8.88537C24.3564 9.12712 24.4922 9.45499 24.4922 9.79688Z" fill="white"/>
</svg>
