<svg width="33" height="33" viewBox="0 0 33 33" fill="none" xmlns="http://www.w3.org/2000/svg">
<path d="M27.4648 27.4287L19.2895 14.5819L27.3848 5.67186C27.4636 5.59881 27.5262 5.51016 27.5687 5.41158C27.6113 5.31299 27.6329 5.20662 27.6321 5.09923C27.6313 4.99185 27.6081 4.88581 27.5641 4.78787C27.5201 4.68993 27.4561 4.60222 27.3764 4.53035C27.2966 4.45847 27.2027 4.40399 27.1007 4.37039C26.9987 4.33679 26.8909 4.32479 26.784 4.33516C26.6771 4.34553 26.5735 4.37805 26.4799 4.43064C26.3863 4.48322 26.3046 4.55473 26.2402 4.64061L18.4336 13.2283L13.0324 4.74116C12.9621 4.63065 12.865 4.5398 12.75 4.47712C12.635 4.41444 12.506 4.38199 12.375 4.3828H6.1875C6.04895 4.38286 5.91296 4.42014 5.79375 4.49074C5.67454 4.56134 5.57648 4.66266 5.50982 4.78412C5.44316 4.90558 5.41035 5.04272 5.41482 5.18119C5.4193 5.31967 5.46088 5.45441 5.53524 5.57131L13.7105 18.4181L5.61516 27.3281C5.49917 27.4826 5.4452 27.6749 5.46386 27.8672C5.48252 28.0595 5.57246 28.2378 5.71599 28.3671C5.85952 28.4964 6.04624 28.5673 6.23942 28.5659C6.4326 28.5645 6.61825 28.4908 6.75985 28.3594L14.5664 19.7716L19.9676 28.2588C20.0379 28.3693 20.135 28.4602 20.25 28.5228C20.365 28.5855 20.494 28.618 20.625 28.6172H26.8125C26.951 28.6171 27.087 28.5798 27.2063 28.5092C27.3255 28.4386 27.4235 28.3373 27.4902 28.2158C27.5568 28.0944 27.5896 27.9573 27.5852 27.8188C27.5807 27.6803 27.5391 27.5456 27.4648 27.4287ZM21.0491 27.0703L7.59645 5.92967H11.9509L25.4036 27.0703H21.0491Z" fill="white"/>
</svg>
