<svg width="763" height="763" viewBox="0 0 763 763" fill="none" xmlns="http://www.w3.org/2000/svg">
<circle cx="381.5" cy="381.5" r="381.5" fill="#EBEBEB"/>
<path fill-rule="evenodd" clip-rule="evenodd" d="M408.703 115.374C407.029 113.131 404.92 111.248 402.503 109.837C400.085 108.427 397.407 107.519 394.631 107.166C391.854 106.813 389.035 107.024 386.341 107.785C383.647 108.546 381.135 109.842 378.953 111.596C325.718 154.335 290.604 215.617 280.648 283.156C262.403 269.925 246.41 253.839 233.287 235.516C231.504 233.024 229.194 230.957 226.521 229.46C223.848 227.963 220.878 227.074 217.822 226.857C214.766 226.639 211.7 227.098 208.842 228.201C205.984 229.304 203.404 231.024 201.287 233.238C164.601 271.616 141.085 320.676 134.145 373.313C127.205 425.949 137.202 479.428 162.687 526.003C188.171 572.578 227.821 609.83 275.892 632.364C323.964 654.898 377.96 661.543 430.06 651.337C482.16 641.13 529.659 614.602 565.675 575.596C601.691 536.589 624.355 487.129 630.383 434.381C636.411 381.632 625.491 328.334 599.204 282.207C572.918 236.08 532.629 199.519 484.175 177.82C454.389 163.336 428.509 141.922 408.703 115.374ZM486.12 447.716C486.109 462.784 482.83 477.67 476.509 491.348C470.187 505.026 460.974 517.169 449.504 526.941C438.034 536.712 424.581 543.879 410.073 547.946C395.565 552.014 380.347 552.886 365.47 550.501C350.592 548.117 336.409 542.533 323.898 534.135C311.388 525.738 300.848 514.726 293.006 501.859C285.164 488.993 280.207 474.578 278.476 459.61C276.745 444.642 278.282 429.476 282.981 415.16C300.426 428.077 320.481 437.66 342.231 442.938C348.128 404.908 367.025 370.098 395.703 344.436C420.731 347.769 443.697 360.079 460.328 379.077C476.96 398.074 486.125 422.467 486.12 447.716Z" fill="black"/>
</svg>
