<svg width="97" height="67" viewBox="0 0 97 67" fill="none" xmlns="http://www.w3.org/2000/svg">
<g clip-path="url(#clip0_147_2)">
<path d="M70.9477 49.1441C72.807 49.1441 74.5492 49.9453 76.0448 51.3423C77.3617 52.5729 79.5579 52.0285 80.0592 50.3295C80.6652 48.2771 81.0062 45.9843 81.0062 43.5663C81.0062 34.7548 76.5029 27.6136 70.9477 27.6136C65.3926 27.6136 60.8893 34.7569 60.8893 43.5663C60.8893 45.9843 61.2282 48.275 61.8363 50.3295C62.3397 52.0285 64.5338 52.575 65.8507 51.3423C67.3443 49.9453 69.0864 49.1441 70.9477 49.1441Z" fill="#6405DA"/>
<path d="M42.2761 48.4353C44.1354 48.4353 45.8775 49.2365 47.3731 50.6335C48.69 51.8641 50.8862 51.3197 51.3875 49.6207C51.9936 47.5683 52.3346 45.2756 52.3346 42.8575C52.3346 34.0461 47.8313 26.9048 42.2761 26.9048C36.7209 26.9048 32.2176 34.0481 32.2176 42.8575C32.2176 45.2756 32.5566 47.5663 33.1647 49.6207C33.668 51.3197 35.8622 51.8662 37.1791 50.6335C38.6747 49.2365 40.4168 48.4353 42.2761 48.4353Z" fill="#6405DA"/>
<path d="M96.9445 56.1722C94.0929 29.9002 83.868 -0.606109 48.4866 0.00816666C13.625 0.614224 3.01793 30.1179 0.0595447 56.1311C-0.560894 61.5898 3.7 66.3745 9.19355 66.3745H87.8084C93.2814 66.3725 97.5341 61.6165 96.9445 56.1722ZM17.9927 36.916C17.2695 41.2755 14.4611 44.4394 11.7226 43.9833C8.984 43.5272 7.35072 39.6258 8.07388 35.2663C8.79704 30.9068 11.6055 27.743 14.344 28.1991C17.0846 28.6552 18.7179 32.5565 17.9927 36.916ZM84.4371 61.2467H25.1914C21.0517 61.2467 17.8386 57.6699 18.307 53.5878C20.1601 37.4358 25.9885 19.4842 42.9622 13.6044C42.9622 13.6332 42.9602 13.6619 42.9602 13.6927C42.9602 17.6434 46.2308 20.8463 50.2678 20.8463H59.3607C63.3956 20.8463 66.6683 17.6434 66.6683 13.6927L66.6519 13.2284C83.8906 18.7097 89.5362 37.2632 91.3256 53.6206C91.7714 57.6905 88.5645 61.2467 84.4371 61.2467Z" fill="#6405DA"/>
<path d="M16.1366 36.6227C16.6517 33.5211 15.6076 30.764 13.8044 30.4645C12.0012 30.165 10.1218 32.4366 9.60667 35.5382C9.09154 38.6397 10.1357 41.3968 11.9389 41.6963C13.7421 41.9958 15.6215 39.7243 16.1366 36.6227Z" fill="#6405DA"/>
</g>
<defs>
<clipPath id="clip0_147_2">
<rect width="97" height="66.3746" fill="white"/>
</clipPath>
</defs>
</svg>
